# xmcd
#
# Track frame offsets:
#	150
#	11010
#	27145
#	38087
#	54440
#	69245
#	86055
#	98097
#	117462
#	131825
#	145427
#	155650
#	176277
#
# Disc length: 2521 seconds
#
# Revision: 0
# Processed by: cddbd v1.5.1PL0 Copyright (c) Steve Scherf et al.
# Submitted via: EasyCDDAExtractor 4.6.9.1
#
DISCID=ab09d70d
DTITLE=Jimmy Bowen and Santa Fe - Some Place Far Away
DYEAR=2003
DGENRE=Bluegrass
TTITLE0=I Know I Haven't Got The Right To Love You
TTITLE1=Cold Cold Heart
TTITLE2=Life Or Love
TTITLE3=Lord Don't Forsake Me
TTITLE4=Some Place Far Away
TTITLE5=Lonesome River
TTITLE6=Wildwood Flower Blues
TTITLE7=Making Plans
TTITLE8=You Can Count On Me
TTITLE9=House Of Gold
TTITLE10=Six Months Down
TTITLE11=Seven Bridges Road
TTITLE12=John Hardy
EXTD=
EXTT0=
EXTT1=
EXTT2=
EXTT3=
EXTT4=
EXTT5=
EXTT6=
EXTT7=
EXTT8=
EXTT9=
EXTT10=
EXTT11=
EXTT12=
PLAYORDER=
